<?xml version="1.0" standalone="no"?>
<!DOCTYPE svg PUBLIC "-//W3C//DTD SVG 20010904//EN"
 "http://www.w3.org/TR/2001/REC-SVG-20010904/DTD/svg10.dtd">
<svg version="1.0" xmlns="http://www.w3.org/2000/svg"
 width="187.000000pt" height="197.000000pt" viewBox="0 0 187.000000 197.000000"
 preserveAspectRatio="xMidYMid meet">
<metadata>
Created by potrace 1.16, written by Peter Selinger 2001-2019
</metadata>
<g transform="translate(0.000000,197.000000) scale(0.100000,-0.100000)"
fill="#000000" stroke="none">
<path d="M918 1922 c-18 -16 -44 -33 -58 -37 -62 -19 -100 -71 -100 -137 0
-22 -6 -37 -20 -46 -24 -14 -27 -60 -5 -68 16 -7 19 -31 6 -52 -4 -7 -25 -19
-46 -27 -33 -11 -47 -10 -89 2 -61 18 -137 13 -190 -12 -49 -23 -109 -83 -102
-100 3 -10 -11 -17 -47 -25 -149 -32 -225 -140 -215 -303 6 -86 30 -145 87
-209 50 -56 156 -113 198 -106 l28 4 -3 -76 c-3 -58 1 -88 17 -131 40 -106
119 -187 204 -210 52 -14 103 -65 112 -111 5 -24 15 -40 32 -49 35 -19 106
-16 138 5 32 21 35 19 42 -34 5 -32 1 -48 -16 -70 -26 -36 -26 -42 -3 -63 25
-23 85 -22 105 1 22 24 21 28 -3 59 -19 25 -26 75 -14 107 5 14 9 14 34 1 35
-18 130 -20 151 -3 9 7 21 32 28 55 13 48 55 88 109 103 76 21 168 116 199
205 11 32 18 79 18 130 l0 81 27 -4 c40 -6 131 40 186 95 64 64 94 130 100
220 11 164 -66 271 -216 304 -38 8 -52 15 -48 24 9 25 -72 94 -131 111 -50 14
-60 14 -129 -1 -76 -17 -103 -15 -129 11 -19 20 -19 60 0 68 21 8 19 50 -4 70
-11 10 -21 36 -24 63 -6 58 -33 94 -85 113 -22 9 -51 25 -64 36 -39 35 -46 36
-80 6z m69 -14 c14 -13 43 -29 65 -38 54 -20 82 -58 84 -116 1 -34 7 -49 23
-60 26 -19 27 -35 1 -57 -28 -23 -25 -43 10 -79 28 -27 35 -29 78 -24 180 22
207 18 268 -39 64 -60 19 -90 -46 -31 -51 46 -104 50 -144 9 -23 -23 -29 -25
-52 -14 -32 14 -60 7 -74 -20 -21 -38 -62 -20 -75 33 l-7 26 -44 -31 c-75 -53
-206 -51 -268 4 l-34 30 -12 -35 c-6 -19 -18 -37 -26 -40 -26 -10 -44 -7 -44
9 0 25 -38 38 -71 25 -25 -11 -32 -9 -60 14 -47 40 -102 36 -145 -10 -23 -24
-41 -34 -56 -32 -40 5 -32 35 19 72 60 44 125 59 190 46 108 -23 116 -23 153
2 40 27 53 75 26 90 -23 13 -20 35 7 53 19 12 24 24 25 62 0 58 26 94 78 111
21 7 50 24 64 37 30 31 37 31 67 3z m-428 -449 c33 -23 46 -28 56 -19 22 19
60 8 63 -17 5 -34 39 -29 76 11 32 33 32 33 55 15 58 -47 167 -49 251 -6 27
14 50 22 50 16 0 -17 48 -59 68 -59 10 0 24 11 30 25 12 26 44 33 71 16 11 -7
25 -1 48 20 46 40 83 38 133 -7 l40 -36 -30 -34 c-33 -38 -45 -72 -38 -109 3
-14 4 -25 3 -25 -2 0 -32 14 -67 30 -241 113 -606 115 -854 5 -31 -14 -58 -25
-60 -25 -2 0 -4 14 -4 30 0 36 -19 77 -49 104 l-21 19 39 39 c49 48 82 49 140
7z m-174 -71 c64 -50 66 -143 5 -168 -60 -25 -123 30 -98 85 6 14 19 25 29 25
27 0 33 -18 7 -22 -29 -4 -35 -34 -12 -59 23 -25 59 -24 78 3 24 34 19 66 -13
99 -25 24 -37 29 -81 29 -84 0 -161 -52 -194 -132 -25 -58 -21 -163 8 -224 31
-66 86 -127 139 -154 23 -12 50 -26 59 -33 35 -23 74 26 48 58 -18 22 -47 18
-64 -7 -9 -12 -18 -19 -22 -15 -11 10 3 35 30 52 19 13 29 14 45 5 28 -15 44
-47 37 -76 -17 -67 -133 -39 -228 56 -48 48 -60 68 -79 130 -59 197 47 366
232 369 33 1 54 -5 74 -21z m1266 7 c130 -44 194 -182 155 -333 -19 -75 -51
-127 -107 -175 -48 -41 -142 -81 -170 -72 -46 15 -48 82 -4 111 23 15 27 15
51 0 27 -18 41 -43 30 -53 -4 -4 -13 3 -22 15 -17 25 -46 29 -64 7 -26 -32 13
-81 48 -58 9 7 36 21 59 33 49 25 103 82 134 142 27 53 37 168 19 222 -28 84
-112 146 -200 146 -44 0 -56 -5 -81 -29 -32 -33 -37 -65 -13 -99 19 -27 55
-28 78 -3 23 25 17 55 -12 59 -26 4 -20 22 7 22 10 0 23 -12 30 -26 14 -31 -5
-68 -44 -86 -54 -24 -116 37 -101 98 4 15 22 42 41 61 27 27 40 33 77 33 25 0
65 -7 89 -15z m-1293 -41 c27 -19 44 -57 36 -79 -9 -24 -44 -39 -57 -26 -8 8
-6 11 5 11 25 0 32 37 14 65 -19 29 -38 32 -60 9 -41 -40 -23 -106 35 -127
l28 -11 -37 -35 c-27 -25 -33 -35 -22 -38 85 -24 137 -122 114 -210 -6 -22 -7
-22 -34 7 -36 39 -71 39 -103 0 -14 -16 -30 -30 -34 -30 -17 0 -85 78 -79 89
4 6 0 14 -9 17 -9 4 -22 18 -29 33 -19 36 -30 111 -17 111 15 0 24 -20 9 -20
-8 -1 -6 -6 6 -15 11 -8 29 -14 40 -14 20 1 21 1 1 6 -38 9 -36 21 4 25 35 3
41 1 41 -15 0 -10 -9 -21 -20 -24 -41 -11 -14 -38 44 -45 31 -3 40 -1 44 14 7
28 22 21 22 -11 0 -21 -6 -32 -20 -36 -21 -7 -28 -25 -10 -25 6 0 10 -4 10
-10 0 -5 -18 -3 -41 5 -27 10 -47 12 -58 6 -14 -8 -12 -11 12 -20 36 -14 94
-14 102 -1 4 6 2 17 -4 24 -9 10 -7 15 8 19 16 4 19 11 16 37 -6 47 -19 56
-46 31 -22 -20 -59 -28 -71 -15 -4 3 3 15 13 25 14 14 18 27 13 42 -9 30 -9
30 -32 16 -25 -15 -63 -5 -80 21 -18 29 0 91 41 137 57 65 155 92 205 57z
m1297 -3 c52 -23 101 -80 115 -132 10 -37 9 -44 -11 -65 -24 -26 -58 -31 -77
-12 -14 14 -17 11 -26 -19 -5 -15 -1 -28 13 -42 10 -10 17 -22 13 -25 -12 -13
-49 -5 -71 15 -27 25 -40 16 -46 -29 -3 -20 1 -34 10 -39 7 -5 13 -17 12 -28
-2 -26 32 -31 87 -15 31 9 37 14 24 21 -10 6 -31 4 -57 -6 -23 -8 -41 -10 -41
-5 0 6 5 10 10 10 18 0 11 18 -10 25 -14 4 -20 15 -20 36 0 32 15 39 22 11 4
-15 13 -17 44 -14 58 7 85 34 44 45 -11 3 -20 14 -20 24 0 16 6 18 40 15 44
-4 45 -21 2 -23 -23 -2 -24 -2 -5 -6 28 -5 71 16 53 27 -9 6 -9 9 0 15 6 4 14
5 17 2 11 -11 -20 -110 -41 -131 -11 -11 -20 -25 -18 -30 3 -10 -45 -63 -70
-77 -12 -7 -24 -1 -47 21 -38 38 -66 38 -101 -1 l-29 -30 -11 40 c-20 73 20
150 99 191 l23 12 -33 34 c-26 27 -29 34 -15 34 24 0 76 54 76 78 0 24 -37 72
-55 72 -21 0 -48 -46 -40 -69 3 -11 14 -22 23 -24 15 -3 15 -5 -2 -12 -25 -11
-59 29 -50 59 17 62 92 83 169 47z m-440 -30 c121 -32 238 -92 330 -167 15
-12 17 -18 7 -21 -28 -11 -85 -69 -98 -100 -21 -49 -17 -88 16 -163 51 -116
39 -254 -29 -353 -35 -52 -105 -104 -156 -118 -51 -14 -93 -55 -106 -102 -7
-23 -19 -48 -28 -54 -24 -20 -101 -16 -140 8 -42 25 -51 16 -51 -57 0 -36 6
-59 20 -77 l20 -26 -22 -15 c-29 -20 -57 -20 -79 0 -18 16 -18 18 1 42 24 29
27 108 6 137 -13 18 -14 18 -41 -3 -19 -15 -42 -22 -72 -22 -56 0 -83 14 -83
44 0 34 -41 89 -80 107 -112 52 -134 66 -166 102 -84 93 -114 224 -74 332 12
33 29 79 37 103 22 61 5 112 -59 177 l-49 49 33 28 c90 74 207 126 358 159
120 27 389 21 505 -10z"/>
<path d="M819 1794 c-22 -23 -24 -33 -21 -102 3 -84 24 -130 66 -150 19 -9 27
-8 36 3 10 12 6 22 -19 50 -31 36 -42 87 -21 100 13 8 13 52 0 60 -16 10 8 45
30 45 11 0 20 5 20 10 0 22 -66 10 -91 -16z"/>
<path d="M1000 1810 c0 -5 9 -10 20 -10 22 0 46 -35 30 -45 -15 -9 -12 -51 4
-64 19 -16 4 -65 -32 -103 -20 -22 -23 -30 -13 -42 16 -19 48 -6 75 31 19 26
39 152 29 182 -13 35 -47 61 -80 61 -18 0 -33 -4 -33 -10z"/>
<path d="M796 1329 c-138 -20 -338 -96 -423 -161 l-32 -24 41 -38 c76 -72 85
-133 37 -253 -51 -128 -39 -241 37 -340 32 -42 100 -88 143 -98 44 -9 107 -74
121 -123 16 -63 76 -71 150 -22 56 37 84 37 139 0 72 -49 131 -40 156 25 25
68 50 92 118 117 74 27 141 88 177 163 21 43 25 64 25 145 -1 82 -4 102 -28
150 -47 96 -31 198 39 243 19 12 34 25 34 29 0 23 -160 115 -260 150 -123 42
-328 58 -474 37z m371 -24 c112 -21 227 -70 310 -133 l33 -24 -39 -38 c-30
-29 -42 -51 -51 -92 -12 -56 -12 -58 41 -203 28 -78 22 -162 -15 -240 -34 -68
-112 -140 -161 -148 -54 -9 -99 -48 -126 -111 -18 -42 -30 -57 -50 -61 -29 -7
-70 7 -107 35 -36 29 -88 25 -141 -10 -45 -31 -59 -34 -98 -24 -16 4 -26 18
-33 46 -14 52 -74 109 -136 130 -110 38 -184 139 -192 263 -3 61 0 80 27 148
48 121 41 189 -27 260 l-37 38 25 21 c42 35 204 107 288 129 157 40 327 44
489 14z"/>
</g>
</svg>
